<svg width="24" height="24" fill="#ffffff" viewBox="0 0 24 24" xmlns="http://www.w3.org/2000/svg">
<path d="M7 2C4.243 2 2 4.243 2 7V17C2 19.757 4.243 22 7 22H17C19.757 22 22 19.757 22 17V7C22 4.243 19.757 2 17 2H7ZM17 4C18.654 4 20 5.346 20 7V17C20 18.654 18.654 20 17 20H7C5.346 20 4 18.654 4 17V7C4 5.346 5.346 4 7 4H17ZM12 7C9.243 7 7 9.243 7 12C7 14.757 9.243 17 12 17C14.757 17 17 14.757 17 12C17 9.243 14.757 7 12 7ZM12 9C13.654 9 15 10.346 15 12C15 13.654 13.654 15 12 15C10.346 15 9 13.654 9 12C9 10.346 10.346 9 12 9ZM17.5 5.75C17.5 6.44 16.94 7 16.25 7C15.56 7 15 6.44 15 5.75C15 5.06 15.56 4.5 16.25 4.5C16.94 4.5 17.5 5.06 17.5 5.75Z"></path>
</svg>
