<svg width="24" height="24" fill="#ffffff" viewBox="0 0 24 24" xmlns="http://www.w3.org/2000/svg">
<path d="M20 3.999C17.8 1.799 14.7 0.799 11.6 1.199C6.5 1.899 2.6 6.299 2.6 11.399C2.6 13.699 3.4 15.899 4.8 17.699L3.6 22L8 20.899C9.7 21.799 11.7 22.199 13.7 21.899C18.7 21.099 22.6 16.699 22.4 11.699C22.3 8.699 21 5.999 20 3.999ZM13.7 19.999C12.1 20.299 10.4 20.099 8.9 19.299L8.4 19.099L6 19.699L6.6 17.399L6.3 16.899C5.1 15.299 4.6 13.399 4.9 11.499C5.3 7.699 8.3 4.699 12.1 4.299C14.6 4.099 17 5.099 18.6 7.099C20.2 9.099 20.8 11.699 20.2 14.199C19.5 17.499 16.9 19.699 13.7 19.999ZM17.3 14.499C17 14.099 15.9 13.499 15.5 13.399C15.1 13.299 14.9 13.299 14.6 13.699C14.3 14.099 13.7 14.899 13.5 15.099C13.3 15.299 13.1 15.299 12.7 15.099C11.5 14.599 10.5 13.799 9.7 12.699C9.1 11.899 8.7 10.999 8.5 10.599C8.3 10.199 8.4 9.999 8.6 9.799C8.8 9.599 9.1 9.099 9.3 8.799C9.5 8.499 9.4 8.299 9.3 7.999C9.2 7.699 8.5 6.099 8.2 5.399C8 4.899 7.8 4.899 7.5 4.899C7.3 4.899 7 4.899 6.7 4.899C6.4 4.999 6.1 5.199 5.9 5.499C5.5 5.999 5.1 6.699 5 7.499C4.8 8.699 5.2 10.099 6.3 11.699C7.6 13.699 9.4 15.499 11.4 16.399C12.8 16.999 14 17.299 14.9 17.399C15.7 17.499 16.2 17.299 16.6 17.099C17 16.899 17.6 16.499 17.9 16.099C18.2 15.699 18.3 15.299 18.3 14.999C18.3 14.799 17.7 14.899 17.3 14.499Z"></path>
</svg>
